# xmcd
#
# Track frame offsets:
#	150
#	13982
#	28022
#	44255
#	57866
#	74668
#	86863
#	103578
#	119921
#	136167
#	153569
#	167351
#	182350
#	198137
#	212630
#
# Disc length: 3085 seconds
#
# Revision: 1
# Processed by: cddbd v1.5.1PL0 Copyright (c) Steve Scherf et al.
# Submitted via: audiograbber 1.82.02
#
DISCID=d20c0b0f
DTITLE=Various Artist - Chartbuster 60098 Hot Country Hits Vol 98
DYEAR=1900
DGENRE=Karaoke
TTITLE0=Brooks and Dunn - Brand new man
TTITLE1=Patty Loveless - Hurt me bad ( in a real good way )
TTITLE2=Doug Stone - I thought it was you
TTITLE3=Kathy Mattea - Time passes by
TTITLE4=Ricky Van Shelton - Life's little up's and down's
TTITLE5=Highway 101 - Bing bang boom
TTITLE6=Restless Heart - When somebody loves you
TTITLE7=Judds - John Deere Tractor
TTITLE8=Mike Reed - As simple as that
TTITLE9=Joe Diffie - Is it cold in here
TTITLE10=Shelby Lynne - Don't cross your heart
TTITLE11=Shennandoah - The moon over Georgia
TTITLE12=Randy Travis - Point of light
TTITLE13=Carlene Carter - One love
TTITLE14=Pirates of the Mississippi - Feed Jake
EXTD=
EXTT0=
EXTT1=
EXTT2=
EXTT3=
EXTT4=
EXTT5=
EXTT6=
EXTT7=
EXTT8=
EXTT9=
EXTT10=
EXTT11=
EXTT12=
EXTT13=
EXTT14=
PLAYORDER=
